# xmcd
#
# Track frame offsets:
# 150
# 21535
# 44350
# 63262
# 79688
# 95902
# 110364
# 129135
# 139699
# 156968
# 176773
# 187539
# 202473
#
# Disc length: 2970 seconds
#
#
# Revision: 0
# Processed by: cddbd v1.5.2PL0 Copyright (c) Steve Scherf et al.
# Submitted via: FreeRIP 2.945 
#
DISCID=b30b980d
DTITLE=Oak Soul - Circle's End
DYEAR=2001
DGENRE=Acoustic
TTITLE0=Hate Me
TTITLE1=Too Late
TTITLE2=Tomorrow
TTITLE3=Letting Go
TTITLE4=Circle's End
TTITLE5=Believe
TTITLE6=Thinkin' Of You
TTITLE7=Dreaming
TTITLE8=Will You Be Gone
TTITLE9=While Nothing Is Said
TTITLE10=The Happy Song
TTITLE11=The Story Ends Here
TTITLE12=Opus
EXTD=ASCAP (c) 2001 Sknick Publishing\nArtists are Chuck Knickerbocker and Ryan Miller\nProduced/Mixed by Michael DeGreve\nMastered by Don Gooch
EXTT0=Written by Chuck Knickerbocker
EXTT1=Written by Chuck Knickerbocker
EXTT2=Written by Chuck Knickerbocker
EXTT3=Written by Chuck Knickerbocker
EXTT4=Written by Chuck Knickerbocker
EXTT5=Written by Chuck Knickerbocker
EXTT6=Written by Chuck Knickerbocker
EXTT7=Written by Chuck Knickerbocker
EXTT8=Written by Chuck Knickerbocker
EXTT9=Written by Chuck Knickerbocker
EXTT10=Written by Chuck Knickerbocker
EXTT11=Written by Chuck Knickerbocker
EXTT12=Written by Chuck Knickerbocker
PLAYORDER=
